<?xml version="1.0" encoding="utf-8"?>

<!-- License Agreement at http://iconmonstr.com/license/ -->

<!DOCTYPE svg PUBLIC "-//W3C//DTD SVG 1.1//EN" "http://www.w3.org/Graphics/SVG/1.1/DTD/svg11.dtd">
<svg version="1.1" xmlns="http://www.w3.org/2000/svg" xmlns:xlink="http://www.w3.org/1999/xlink" x="0px" y="0px"
	 width="512px" height="512px" viewBox="0 0 512 512" style="enable-background:new 0 0 512 512;" xml:space="preserve">
<path id="puzzle-9" d="M204.5,50v139.043c0,12.9,3.336,24.074,9.623,32.33c14.099,18.466,41.978,18.491,61.173-0.788
	c1.425-1.417,2.816-2.9,4.208-4.4c7.074-7.536,10.963-11.685,22.749-11.685c16.177,0,39.581,18.34,39.581,51.5
	c0,33.16-23.404,51.5-39.581,51.5c-11.786,0-15.675-4.157-22.749-11.685c-1.392-1.492-2.783-2.983-4.158-4.342
	c-9.689-9.74-21.324-15.104-32.774-15.104c-18.34,0-38.072,14.568-38.072,46.588V462h-68.667C88.424,462,50,423.576,50,376.167
	V135.833C50,88.433,88.424,50,135.833,50H204.5z M238.833,50v139.043c0,11.869,5.515,14.216,15.624,3.663
	c8.416-8.978,21.14-22.54,47.795-22.54c35.69,0,73.913,34.493,73.913,85.833c0,51.332-38.223,85.834-73.913,85.834
	c-26.655,0-39.38-13.562-47.795-22.531c-10.779-11.266-15.624-6.069-15.624,3.654V462h137.333c47.41,0,85.834-38.424,85.834-85.833
	V135.833C462,88.433,423.576,50,376.166,50H238.833z"/>
</svg>
