<?xml version="1.0" encoding="utf-8"?>

<!-- License Agreement at http://iconmonstr.com/license/ -->

<!DOCTYPE svg PUBLIC "-//W3C//DTD SVG 1.1//EN" "http://www.w3.org/Graphics/SVG/1.1/DTD/svg11.dtd">
<svg version="1.1" xmlns="http://www.w3.org/2000/svg" xmlns:xlink="http://www.w3.org/1999/xlink" x="0px" y="0px"
	 width="512px" height="512px" viewBox="0 0 512 512" style="enable-background:new 0 0 512 512;" xml:space="preserve">
<path id="puzzle-10" d="M376.166,50H135.833C88.424,50,50,88.433,50,135.833v240.333C50,423.576,88.424,462,135.833,462h240.333
	c47.41,0,85.834-38.424,85.834-85.833V135.833C462,88.433,423.576,50,376.166,50z M84.333,376.167V135.833
	c0-28.399,23.101-51.5,51.5-51.5H204.5v104.71c0,12.9,3.336,24.074,9.623,32.33c14.116,18.466,41.978,18.491,61.173-0.788
	c1.425-1.417,2.816-2.9,4.208-4.4c7.074-7.536,10.963-11.685,22.749-11.685c16.177,0,39.581,18.34,39.581,51.5
	c0,33.16-23.404,51.5-39.581,51.5c-11.786,0-15.675-4.157-22.749-11.685c-1.392-1.492-2.783-2.983-4.158-4.342
	c-9.689-9.74-21.324-15.104-32.774-15.104c-18.34,0-38.072,14.568-38.072,46.588v104.71h-68.667
	C107.435,427.667,84.333,404.565,84.333,376.167z M427.666,376.167c0,28.398-23.101,51.5-51.5,51.5H238.833v-104.71
	c0-8.147,2.397-12.255,3.738-12.255c1.609,0,4.778,1.308,8.483,5.046l3.403,3.555c8.416,8.969,21.14,22.531,47.795,22.531
	c35.69,0,73.913-34.502,73.913-85.834c0-51.34-38.223-85.833-73.913-85.833c-26.655,0-39.38,13.562-47.795,22.54l-3.453,3.604
	c-3.688,3.696-6.94,4.987-9.573,4.241c-0.62-0.796-2.598-3.981-2.598-11.509V84.333h137.333c28.399,0,51.5,23.101,51.5,51.5V376.167
	z"/>
</svg>
